<svg width="60" height="50" viewBox="0 0 60 50" fill="none" xmlns="http://www.w3.org/2000/svg">
<path d="M60 6.39625C57.7687 7.375 55.3913 8.02375 52.9125 8.33875C55.4625 6.81625 57.4088 4.42375 58.3238 1.54C55.9463 2.9575 53.3212 3.95875 50.5238 4.5175C48.2662 2.11375 45.0487 0.625 41.5387 0.625C34.7287 0.625 29.2463 6.1525 29.2463 12.9288C29.2463 13.9038 29.3288 14.8412 29.5312 15.7337C19.305 15.235 10.2563 10.3338 4.1775 2.8675C3.11625 4.70875 2.49375 6.81625 2.49375 9.085C2.49375 13.345 4.6875 17.1213 7.9575 19.3075C5.98125 19.27 4.0425 18.6963 2.4 17.7925C2.4 17.83 2.4 17.8787 2.4 17.9275C2.4 23.905 6.66375 28.87 12.255 30.0138C11.2537 30.2875 10.1625 30.4187 9.03 30.4187C8.2425 30.4187 7.4475 30.3738 6.70125 30.2087C8.295 35.08 12.8175 38.6613 18.195 38.7775C14.01 42.0513 8.69625 44.0238 2.94375 44.0238C1.935 44.0238 0.9675 43.9787 0 43.855C5.44875 47.3687 11.9062 49.375 18.87 49.375C41.505 49.375 53.88 30.625 53.88 14.3725C53.88 13.8287 53.8612 13.3038 53.835 12.7825C56.2762 11.05 58.3275 8.88625 60 6.39625Z" fill="#03A9F4"/>
</svg>
